<?xml version="1.0" encoding="UTF-8"?>
<svg xmlns="http://www.w3.org/2000/svg" xmlns:xlink="http://www.w3.org/1999/xlink" width="512" height="512" viewBox="0 0 54 54" version="1.1"><!-- Generator: Sketch 51.3 (57544) - http://www.bohemiancoding.com/sketch --><title>016 - Chakra</title><desc>Created with Sketch.</desc><defs/><g id="Page-1" stroke="none" stroke-width="1" fill="none" fill-rule="evenodd"><g id="016---Chakra" fill="#000000" fill-rule="nonzero"><path d="M34.108,12.688 L36.634,8.313 C36.8113616,8.00104922 37.1422732,7.80804678 37.5011183,7.8072579 C37.8599634,7.80646901 38.1917204,7.99801463 38.3704519,8.30918258 C38.5491833,8.62035053 38.5474844,9.00342958 38.366,9.313 L35.84,13.688 C36.4793715,14.1060544 37.0873251,14.5702917 37.659,15.077 L37.691,15.108 L37.702,15.119 L37.734,15.151 C37.915,15.309 38.092,15.478 38.267,15.651 C39.5661005,14.6823407 40.5165254,13.3189775 40.976,11.765 C41.1660134,10.9527346 41.1484744,10.1057035 40.925,9.302 C40.4509675,7.65114252 40.1740403,5.94997066 40.1,4.234 C38.5767984,5.02460061 36.9656708,5.63280125 35.3,6.046 C34.6678945,6.21077033 34.074772,6.49934401 33.555,6.895 C33.8443732,8.67708641 33.6463832,10.5042612 32.982,12.183 C33.3653333,12.337 33.7406667,12.5053333 34.108,12.688 Z" id="Shape"/><path d="M33,27 C33,23.6862915 30.3137085,21 27,21 C23.6862915,21 21,23.6862915 21,27 C21,30.3137085 23.6862915,33 27,33 C30.3123376,32.9966926 32.9966926,30.3123376 33,27 Z M26,30 L26,29.414 L25.707,29.707 C25.3146211,30.0859722 24.6909152,30.0805524 24.3051814,29.6948186 C23.9194476,29.3090848 23.9140278,28.6853789 24.293,28.293 L24.586,28 L24,28 C23.4477153,28 23,27.5522847 23,27 C23,26.4477153 23.4477153,26 24,26 L24.586,26 L24.293,25.707 C23.9140278,25.3146211 23.9194476,24.6909152 24.3051814,24.3051814 C24.6909152,23.9194476 25.3146211,23.9140278 25.707,24.293 L26,24.586 L26,24 C26,23.4477153 26.4477153,23 27,23 C27.5522847,23 28,23.4477153 28,24 L28,24.586 L28.293,24.293 C28.6853789,23.9140278 29.3090848,23.9194476 29.6948186,24.3051814 C30.0805524,24.6909152 30.0859722,25.3146211 29.707,25.707 L29.414,26 L30,26 C30.5522847,26 31,26.4477153 31,27 C31,27.5522847 30.5522847,28 30,28 L29.414,28 L29.707,28.293 C29.9669566,28.5440745 30.0712126,28.9158779 29.9796972,29.2655073 C29.8881817,29.6151368 29.6151368,29.8881817 29.2655073,29.9796972 C28.9158779,30.0712126 28.5440745,29.9669566 28.293,29.707 L28,29.414 L28,30 C28,30.5522847 27.5522847,31 27,31 C26.4477153,31 26,30.5522847 26,30 Z" id="Shape"/><path d="M11.273,41.135 C11.8980562,39.4387658 12.9862541,37.9518045 14.414,36.843 C14.158,36.519 13.9153333,36.1856667 13.686,35.843 L9.313,38.367 C8.83514004,38.6386903 8.22757955,38.4737416 7.95272547,37.9976943 C7.67787139,37.521647 7.83878639,36.9130058 8.313,36.635 L12.685,34.111 C12.3383133,33.4265639 12.0421888,32.71767 11.799,31.99 C11.713,31.74 11.631,31.475 11.553,31.19 C9.94693176,31.3924047 8.44691431,32.1005615 7.27,33.212 C6.69913942,33.8197493 6.29146924,34.5621563 6.085,35.37 C5.67185347,37.0355443 5.06400066,38.6466396 4.274,40.17 C5.98857438,40.2441405 7.6883714,40.5207267 9.338,40.994 C9.96760731,41.1668879 10.6249805,41.2147895 11.273,41.135 Z" id="Shape"/><path d="M22.646,40.3 L22.658,40.3 C23.1424522,40.4647398 23.6363365,40.6003159 24.137,40.706 C26.0328497,41.0890034 27.9861503,41.0890034 29.882,40.706 C30.379598,40.6002711 30.8704652,40.4650322 31.352,40.301 C33.1971363,39.6921004 34.8963945,38.708158 36.343,37.411 C36.7237069,37.0777313 37.0805817,36.7181833 37.411,36.335 C37.425,36.319 37.441,36.305 37.455,36.29 L37.473,36.272 C37.485,36.26 37.497,36.246 37.51,36.235 C38.7665068,34.8180886 39.7164001,33.1566266 40.3,31.355 C40.4669653,30.8634495 40.6051987,30.3626038 40.714,29.855 C41.0980052,27.9612708 41.0980052,26.0097292 40.714,24.116 C40.6077129,23.6182099 40.4724833,23.1270426 40.309,22.645 C39.7043745,20.7985458 38.7199305,19.0991025 37.419,17.656 C37.0860833,17.2752987 36.7268681,16.9184226 36.344,16.588 C36.325,16.572 36.309,16.554 36.292,16.537 L36.283,16.529 C36.27,16.515 36.254,16.502 36.241,16.487 C34.8234184,15.2310709 33.1612152,14.2821647 31.359,13.7 C30.8678209,13.5318296 30.366903,13.3935763 29.859,13.286 C27.9654558,12.9035084 26.0145442,12.9035084 24.121,13.286 C23.623402,13.3917289 23.1325348,13.5269678 22.651,13.691 C20.8058637,14.2998996 19.1066055,15.283842 17.66,16.581 C17.2792931,16.9142687 16.9224183,17.2738167 16.592,17.657 C16.576,17.676 16.557,17.692 16.54,17.71 L16.54,17.715 C16.526,17.729 16.513,17.744 16.498,17.757 C15.2387688,19.1729184 14.2861323,20.8340741 13.7,22.636 C13.5319633,23.1300992 13.393058,23.6336308 13.284,24.144 C12.8999948,26.0377292 12.8999948,27.9892708 13.284,29.883 C13.3902871,30.3807901 13.5255167,30.8719574 13.689,31.354 C13.9865008,32.270718 14.3789645,33.1538452 14.86,33.989 L14.87,34 C14.87,34.005 14.87,34.012 14.876,34.017 C15.3586587,34.8485174 15.9285421,35.6262406 16.576,36.337 C16.9103097,36.7199389 17.2712046,37.0788289 17.656,37.411 C17.672,37.424 17.685,37.44 17.7,37.454 L17.721,37.475 C17.734,37.488 17.747,37.499 17.759,37.512 C19.1758729,38.7670357 20.8365061,39.7161635 22.637,40.3 L22.646,40.3 Z M21.5,37.526 C21.1429176,37.525634 20.8131261,37.3348904 20.6347434,37.0255563 C20.4563607,36.7162222 20.4564585,36.3352425 20.635,36.026 L22.172,33.363 C21.5939951,32.9229936 21.0780064,32.4070049 20.638,31.829 L17.975,33.366 C17.6654296,33.5474844 17.2823505,33.5491833 16.9711826,33.3704519 C16.6600146,33.1917204 16.468469,32.8599634 16.4692579,32.5011183 C16.4700468,32.1422732 16.6630492,31.8113616 16.975,31.634 L19.626,30.1 C19.3457031,29.4285855 19.1583088,28.7220718 19.069,28 L16,28 C15.4477153,28 15,27.5522847 15,27 C15,26.4477153 15.4477153,26 16,26 L19.069,26 C19.1583088,25.2779282 19.3457031,24.5714145 19.626,23.9 L16.974,22.368 C16.6620492,22.1906384 16.4690468,21.8597268 16.4682579,21.5008817 C16.467469,21.1420366 16.6590146,20.8102796 16.9701826,20.6315481 C17.2813505,20.4528167 17.6644296,20.4545156 17.974,20.636 L20.637,22.173 C21.0770064,21.5949951 21.5929951,21.0790064 22.171,20.639 L20.634,17.976 C20.4525156,17.6664296 20.4508167,17.2833505 20.6295481,16.9721826 C20.8082796,16.6610146 21.1400366,16.469469 21.4988817,16.4702579 C21.8577268,16.4710468 22.1886384,16.6640492 22.366,16.976 L23.9,19.627 C24.5711545,19.3457409 25.277756,19.1579867 26,19.069 L26,16 C26,15.4477153 26.4477153,15 27,15 C27.5522847,15 28,15.4477153 28,16 L28,19.069 C28.722244,19.1579867 29.4288455,19.3457409 30.1,19.627 L31.632,16.974 C31.8093616,16.6620492 32.1402732,16.4690468 32.4991183,16.4682579 C32.8579634,16.467469 33.1897204,16.6590146 33.3684519,16.9701826 C33.5471833,17.2813505 33.5454844,17.6644296 33.364,17.974 L31.827,20.637 C32.4050049,21.0770064 32.9209936,21.5929951 33.361,22.171 L36.024,20.634 C36.3335704,20.4525156 36.7166495,20.4508167 37.0278174,20.6295481 C37.3389854,20.8082796 37.530531,21.1400366 37.5297421,21.4988817 C37.5289532,21.8577268 37.3359508,22.1886384 37.024,22.366 L34.374,23.9 C34.6542969,24.5714145 34.8416912,25.2779282 34.931,26 L38,26 C38.5522847,26 39,26.4477153 39,27 C39,27.5522847 38.5522847,28 38,28 L34.931,28 C34.8416912,28.7220718 34.6542969,29.4285855 34.374,30.1 L37.026,31.632 C37.3379508,31.8093616 37.5309532,32.1402732 37.5317421,32.4991183 C37.532531,32.8579634 37.3409854,33.1897204 37.0298174,33.3684519 C36.7186495,33.5471833 36.3355704,33.5454844 36.026,33.364 L33.363,31.827 C32.9229936,32.4050049 32.4070049,32.9209936 31.829,33.361 L33.366,36.024 C33.5474844,36.3335704 33.5491833,36.7166495 33.3704519,37.0278174 C33.1917204,37.3389854 32.8599634,37.530531 32.5011183,37.5297421 C32.1422732,37.5289532 31.8113616,37.3359508 31.634,37.024 L30.1,34.373 C29.4288455,34.6542591 28.722244,34.8420133 28,34.931 L28,38 C28,38.5522847 27.5522847,39 27,39 C26.4477153,39 26,38.5522847 26,38 L26,34.931 C25.277756,34.8420133 24.5711545,34.6542591 23.9,34.373 L22.368,37.026 C22.1890149,37.3360129 21.8579708,37.5267064 21.5,37.526 Z" id="Shape"/><path d="M30.269,11.33 C30.562,11.394 30.832,11.462 31.091,11.53 C31.7235974,10.0380101 31.8637241,8.38311447 31.491,6.806 C31.2445752,6.01114383 30.8051659,5.28967429 30.212,4.706 C28.9749381,3.5147088 27.8833339,2.1810854 26.96,0.733 C26.0366783,2.18167783 24.9447102,3.51567138 23.707,4.707 C23.2416574,5.16340132 22.8709142,5.7071128 22.616,6.307 C23.7688198,7.69877669 24.5146015,9.38206298 24.771,11.171 C25.181,11.115 25.59,11.076 26,11.051 L26,6 C26,5.44771525 26.4477153,5 27,5 C27.5522847,5 28,5.44771525 28,6 L28,11.051 C28.76183,11.0919307 29.5199481,11.1851502 30.269,11.33 Z" id="Shape"/><path d="M6.307,31.384 C7.69877848,30.2303849 9.38252168,29.484208 11.172,29.228 C11.116,28.817 11.072,28.409 11.051,28 L6,28 C5.44771525,28 5,27.5522847 5,27 C5,26.4477153 5.44771525,26 6,26 L11.051,26 C11.0911598,25.2388164 11.1840492,24.4813332 11.329,23.733 L11.329,23.717 C11.391,23.432 11.457,23.166 11.529,22.908 C10.0364248,22.2763491 8.38151913,22.1362512 6.804,22.508 C6.00921263,22.7545772 5.28777818,23.1939652 4.704,23.787 C3.51323628,25.0245234 2.17992751,26.1164805 0.732,27.04 C2.18111119,27.9631424 3.51545625,29.0551234 4.707,30.293 C5.1635699,30.7581411 5.70723882,31.1288553 6.307,31.384 Z" id="Shape"/><path d="M9.3,13.075 C7.64909943,13.5488402 5.94795054,13.8257637 4.232,13.9 C5.02198132,15.423478 5.6301538,17.034531 6.044,18.7 C6.21076173,19.3329928 6.50173818,19.9265032 6.9,20.446 C8.68177488,20.1573115 10.5084458,20.3552843 12.187,21.019 C12.34,20.637 12.509,20.263 12.693,19.892 L8.318,17.366 C8.00604922,17.1886384 7.81304678,16.8577268 7.8122579,16.4988817 C7.81146901,16.1400366 8.00301463,15.8082796 8.31418258,15.6295481 C8.62535053,15.4508167 9.00842958,15.4525156 9.318,15.634 L13.69,18.16 C14.107737,17.5206075 14.5712857,16.9123461 15.077,16.34 L15.11,16.307 L15.118,16.3 L15.149,16.268 C15.307,16.088 15.495,15.925 15.666,15.751 C14.6951727,14.4441005 13.3267352,13.4872469 11.766,13.024 C10.9527779,12.833474 10.1046495,12.8510143 9.3,13.075 Z" id="Shape"/><path d="M35.372,47.915 C37.0376199,48.3274454 38.6487577,48.9349786 40.172,49.725 C40.2463061,48.0111723 40.5225487,46.3120957 40.995,44.663 C41.1686647,44.0328523 41.2169106,43.3747371 41.137,42.726 C39.4392077,42.1007981 37.951066,41.0114576 36.842,39.582 C36.516,39.838 36.182,40.082 35.842,40.308 L38.37,44.687 C38.5514844,44.9965704 38.5531833,45.3796495 38.3744519,45.6908174 C38.1957204,46.0019854 37.8639634,46.193531 37.5051183,46.1927421 C37.1462732,46.1919532 36.8153616,45.9989508 36.638,45.687 L34.112,41.311 C33.4286823,41.6589927 32.7207875,41.9564555 31.994,42.201 C31.745,42.287 31.479,42.369 31.194,42.447 C31.3880235,44.0561003 32.0985523,45.5589125 33.219,46.73 C33.8252327,47.300269 34.5658734,47.7079138 35.372,47.915 Z" id="Shape"/><path d="M49.293,23.707 C48.8364301,23.2418589 48.2927612,22.8711447 47.693,22.616 C46.3012215,23.7696151 44.6174783,24.515792 42.828,24.772 C42.884,25.183 42.928,25.591 42.949,26 L48,26 C48.5522847,26 49,26.4477153 49,27 C49,27.5522847 48.5522847,28 48,28 L42.949,28 C42.9088402,28.7611836 42.8159508,29.5186668 42.671,30.267 C42.607,30.56 42.539,30.83 42.471,31.092 C43.9635415,31.7237874 45.6184912,31.863889 47.196,31.492 C47.9907874,31.2454228 48.7122218,30.8060348 49.296,30.213 C50.487733,28.9749289 51.8224331,27.882932 53.272,26.96 C51.8213822,26.0372621 50.4856665,24.9452583 49.293,23.707 Z" id="Shape"/><path d="M13.83,4.275 C13.7556939,5.98882767 13.4794513,7.68790435 13.007,9.337 C12.8333353,9.96714774 12.7850894,10.6252629 12.865,11.274 C14.5646137,11.8983837 16.054577,12.9877894 17.165,14.418 C17.491,14.162 17.825,13.918 18.165,13.692 L15.637,9.313 C15.3653097,8.83514004 15.5302584,8.22757955 16.0063057,7.95272547 C16.482353,7.67787139 17.0909942,7.83878639 17.369,8.313 L19.895,12.689 C20.5783177,12.3410073 21.2862125,12.0435445 22.013,11.799 C22.262,11.713 22.528,11.631 22.813,11.553 C22.6189765,9.94389966 21.9084477,8.44108749 20.788,7.27 C20.1806364,6.69914434 19.4385519,6.29146227 18.631,6.085 C16.9650369,5.6726294 15.3535593,5.06509465 13.83,4.275 Z" id="Shape"/><path d="M47.954,35.3 C47.7887662,34.6655964 47.4984137,34.0706118 47.1,33.55 C46.6021255,33.6532671 46.0954381,33.7081889 45.587,33.714 C44.2960079,33.6930668 43.0186781,33.4459945 41.813,32.984 C41.6596667,33.3666667 41.493,33.7413333 41.313,34.108 L45.688,36.634 C45.9999508,36.8113616 46.1929532,37.1422732 46.1937421,37.5011183 C46.194531,37.8599634 46.0029854,38.1917204 45.6918174,38.3704519 C45.3806495,38.5491833 44.9975704,38.5474844 44.688,38.366 L40.311,35.84 C39.8933007,36.4796786 39.4293978,37.0879663 38.923,37.66 C38.899,37.6853333 38.875,37.7093333 38.851,37.732 C38.693,37.912 38.505,38.075 38.334,38.249 C39.3048273,39.5558995 40.6732648,40.5127531 42.234,40.976 C43.0462155,41.1664881 43.893366,41.1489466 44.697,40.925 C46.3479006,40.4511598 48.0490495,40.1742363 49.765,40.1 C48.9753636,38.5764771 48.3675273,36.9654257 47.954,35.3 Z" id="Shape"/><path d="M42.727,12.865 C42.1021973,14.5646579 41.0124623,16.0545977 39.582,17.165 C39.838,17.491 40.082,17.825 40.308,18.165 L44.687,15.637 C45.16486,15.3653097 45.7724205,15.5302584 46.0472745,16.0063057 C46.3221286,16.482353 46.1612136,17.0909942 45.687,17.369 L41.311,19.895 C41.6586779,20.5779896 41.9558078,21.2855533 42.2,22.012 C42.2866667,22.2633333 42.369,22.53 42.447,22.812 C44.0530682,22.6095953 45.5530857,21.9014385 46.73,20.79 C47.3008606,20.1822507 47.7085308,19.4398437 47.915,18.632 C48.3281465,16.9664557 48.9359993,15.3553604 49.726,13.832 C48.0114256,13.7578595 46.3116286,13.4812733 44.662,13.008 C44.0324413,12.8349262 43.3751614,12.786352 42.727,12.865 Z" id="Shape"/><path d="M19.892,41.311 L17.366,45.687 C17.1886384,45.9989508 16.8577268,46.1919532 16.4988817,46.1927421 C16.1400366,46.193531 15.8082796,46.0019854 15.6295481,45.6908174 C15.4508167,45.3796495 15.4525156,44.9965704 15.634,44.687 L18.161,40.31 C17.5213152,39.892677 16.9130244,39.4291059 16.341,38.923 C16.3145363,38.8998623 16.2894909,38.8751508 16.266,38.849 C16.085,38.691 15.908,38.522 15.733,38.349 C14.4338995,39.3176593 13.4834746,40.6810225 13.024,42.235 C12.8339866,43.0472654 12.8515256,43.8942965 13.075,44.698 C13.5486941,46.3488983 13.8252855,48.0500695 13.899,49.766 C15.4222016,48.9753994 17.0333292,48.3671988 18.699,47.954 C19.3311055,47.7892297 19.924228,47.500656 20.444,47.105 C20.1543091,45.3232517 20.3523109,43.4963135 21.017,41.818 C20.6363333,41.664 20.2613333,41.495 19.892,41.311 Z" id="Shape"/><path d="M23.787,49.292 C25.0242469,50.4841246 26.1161638,51.8183912 27.04,53.267 C27.9635126,51.8184604 29.055463,50.4844884 30.293,49.293 C30.7583426,48.8365987 31.1290858,48.2928872 31.384,47.693 C30.2309683,46.3009705 29.485171,44.6173029 29.229,42.828 C28.8183333,42.884 28.4086667,42.9243333 28,42.949 L28,48 C28,48.5522847 27.5522847,49 27,49 C26.4477153,49 26,48.5522847 26,48 L26,42.949 C25.2381592,42.908192 24.4800327,42.8149716 23.731,42.67 L23.726,42.67 L23.716,42.67 C23.43,42.607 23.165,42.541 22.908,42.47 C22.2759501,43.9621254 22.1358385,45.616844 22.508,47.194 C22.7547233,47.9881395 23.1941139,48.7088912 23.787,49.292 Z" id="Shape"/><circle id="Oval" cx="20" cy="1" r="1"/><circle id="Oval" cx="34" cy="1" r="1"/><circle id="Oval" cx="46" cy="8" r="1"/><circle id="Oval" cx="53" cy="20" r="1"/><circle id="Oval" cx="53" cy="34" r="1"/><circle id="Oval" cx="46" cy="46" r="1"/><circle id="Oval" cx="34" cy="53" r="1"/><circle id="Oval" cx="20" cy="53" r="1"/><circle id="Oval" cx="8" cy="46" r="1"/><circle id="Oval" cx="1" cy="34" r="1"/><circle id="Oval" cx="1" cy="20" r="1"/><circle id="Oval" cx="8" cy="8" r="1"/></g></g></svg>
