<svg id="Layer_1" enable-background="new 0 0 512 512" height="512" viewBox="0 0 512 512" width="512" xmlns="http://www.w3.org/2000/svg"><g><path d="m271 15c0-8.284-6.716-15-15-15s-15 6.716-15 15v16.067c0 8.284 6.716 15 15 15s15-6.716 15-15z"/><path d="m92.367 113.58c5.856 5.857 15.355 5.859 21.213 0 5.858-5.858 5.858-15.355 0-21.213l-17.352-17.352c-5.857-5.858-15.355-5.858-21.213 0s-5.858 15.355 0 21.213z"/><path d="m419.634 113.58 17.352-17.352c5.858-5.858 5.858-15.355 0-21.213-5.857-5.857-15.355-5.858-21.213 0l-17.352 17.352c-5.858 5.858-5.858 15.355 0 21.213 5.856 5.857 15.355 5.859 21.213 0z"/><path d="m62.133 256c0-8.284-6.716-15-15-15h-32.133c-8.284 0-15 6.716-15 15s6.716 15 15 15h32.133c8.284 0 15-6.716 15-15z"/><path d="m497 241h-32.134c-8.284 0-15 6.716-15 15s6.716 15 15 15h32.134c8.284 0 15-6.716 15-15s-6.716-15-15-15z"/><path d="m166.602 257.222 66.709-133.418c6.769-13.537 7.689-25.845 7.689-32.569 0-7.498-4.358-14.313-11.165-17.457-11.32-5.229-19.137 3.837-20.609 6.151l-117.093 184.001v87.885l-16.756 16.756 87.885 87.885 16.756-16.756c34.623 0 60.982-28.426 60.982-61.581v-91.186c0-12.697-10.293-22.991-22.991-22.991s-22.991 10.293-22.991 22.991v40.838c0 8.077-6.207 15.027-14.275 15.407-8.614.406-15.725-6.458-15.725-14.983v-64.265c0-2.328.542-4.625 1.584-6.708z"/><path d="m24.64 419.309c-6.408 6.409-6.408 16.799 0 23.207l64.678 64.678c6.409 6.408 16.799 6.408 23.207 0l29.524-29.524-87.885-87.885z"/><path d="m419.867 351.815v-87.885l-117.092-184.001c-1.473-2.314-9.29-11.381-20.609-6.151-6.808 3.144-11.166 9.958-11.166 17.457 0 6.724.92 19.032 7.689 32.57l66.709 133.418c1.042 2.083 1.583 4.379 1.583 6.708v64.267c0 8.525-7.111 15.389-15.725 14.983-8.068-.38-14.275-7.33-14.275-15.407v-40.838c0-12.697-10.293-22.991-22.991-22.991s-22.99 10.292-22.99 22.99v91.186c0 33.155 26.359 61.581 60.982 61.581l16.756 16.756 87.885-87.885z"/><path d="m457.836 389.785-87.885 87.885 29.524 29.524c6.409 6.408 16.799 6.408 23.207 0l64.678-64.678c6.408-6.408 6.409-16.799 0-23.207z"/></g></svg>